<mxfile host="Electron" agent="Mozilla/5.0 (Windows NT 10.0; Win64; x64) AppleWebKit/537.36 (KHTML, like Gecko) draw.io/27.0.5 Chrome/134.0.6998.205 Electron/35.3.0 Safari/537.36" version="27.0.5">
  <diagram name="Page-1" id="vCf-qj_lUqClcT9doWJZ">
    <mxGraphModel dx="1042" dy="634" grid="1" gridSize="10" guides="1" tooltips="1" connect="1" arrows="1" fold="1" page="1" pageScale="1" pageWidth="850" pageHeight="1100" math="0" shadow="0">
      <root>
        <mxCell id="0" />
        <mxCell id="1" parent="0" />
        <mxCell id="O8Ay8VOZU-02YLO_uC_p-1" value="Student&amp;nbsp;" style="rounded=0;whiteSpace=wrap;html=1;" parent="1" vertex="1">
          <mxGeometry x="150" y="60" width="80" height="30" as="geometry" />
        </mxCell>
        <mxCell id="O8Ay8VOZU-02YLO_uC_p-2" value="ST_ID" style="ellipse;whiteSpace=wrap;html=1;" parent="1" vertex="1">
          <mxGeometry x="30" y="30" width="80" height="40" as="geometry" />
        </mxCell>
        <mxCell id="O8Ay8VOZU-02YLO_uC_p-3" value="ST_name" style="ellipse;whiteSpace=wrap;html=1;" parent="1" vertex="1">
          <mxGeometry x="80" y="90" width="60" height="25" as="geometry" />
        </mxCell>
        <mxCell id="O8Ay8VOZU-02YLO_uC_p-4" value="ST_address" style="ellipse;whiteSpace=wrap;html=1;" parent="1" vertex="1">
          <mxGeometry x="90" y="135" width="80" height="40" as="geometry" />
        </mxCell>
        <mxCell id="O8Ay8VOZU-02YLO_uC_p-5" value="ST_age" style="ellipse;whiteSpace=wrap;html=1;" parent="1" vertex="1">
          <mxGeometry x="110" y="10" width="80" height="40" as="geometry" />
        </mxCell>
        <mxCell id="O8Ay8VOZU-02YLO_uC_p-6" value="" style="endArrow=none;html=1;rounded=0;exitX=0;exitY=1;exitDx=0;exitDy=0;entryX=1;entryY=1;entryDx=0;entryDy=0;" parent="1" source="O8Ay8VOZU-02YLO_uC_p-2" target="O8Ay8VOZU-02YLO_uC_p-2" edge="1">
          <mxGeometry width="50" height="50" relative="1" as="geometry">
            <mxPoint x="400" y="350" as="sourcePoint" />
            <mxPoint x="450" y="300" as="targetPoint" />
          </mxGeometry>
        </mxCell>
        <mxCell id="O8Ay8VOZU-02YLO_uC_p-7" value="Fname" style="ellipse;whiteSpace=wrap;html=1;" parent="1" vertex="1">
          <mxGeometry x="10" y="80" width="60" height="25" as="geometry" />
        </mxCell>
        <mxCell id="O8Ay8VOZU-02YLO_uC_p-8" value="Lname" style="ellipse;whiteSpace=wrap;html=1;" parent="1" vertex="1">
          <mxGeometry x="10" y="110" width="60" height="25" as="geometry" />
        </mxCell>
        <mxCell id="O8Ay8VOZU-02YLO_uC_p-9" value="" style="endArrow=none;html=1;rounded=0;exitX=0.5;exitY=0;exitDx=0;exitDy=0;entryX=1;entryY=1;entryDx=0;entryDy=0;" parent="1" source="O8Ay8VOZU-02YLO_uC_p-1" target="O8Ay8VOZU-02YLO_uC_p-5" edge="1">
          <mxGeometry width="50" height="50" relative="1" as="geometry">
            <mxPoint x="400" y="140" as="sourcePoint" />
            <mxPoint x="450" y="90" as="targetPoint" />
          </mxGeometry>
        </mxCell>
        <mxCell id="O8Ay8VOZU-02YLO_uC_p-10" value="" style="endArrow=none;html=1;rounded=0;exitX=0;exitY=0;exitDx=0;exitDy=0;entryX=1;entryY=0.5;entryDx=0;entryDy=0;" parent="1" source="O8Ay8VOZU-02YLO_uC_p-1" target="O8Ay8VOZU-02YLO_uC_p-2" edge="1">
          <mxGeometry width="50" height="50" relative="1" as="geometry">
            <mxPoint x="400" y="140" as="sourcePoint" />
            <mxPoint x="450" y="90" as="targetPoint" />
          </mxGeometry>
        </mxCell>
        <mxCell id="O8Ay8VOZU-02YLO_uC_p-11" value="" style="endArrow=none;html=1;rounded=0;exitX=0;exitY=0.5;exitDx=0;exitDy=0;entryX=1;entryY=0.5;entryDx=0;entryDy=0;" parent="1" source="O8Ay8VOZU-02YLO_uC_p-1" target="O8Ay8VOZU-02YLO_uC_p-3" edge="1">
          <mxGeometry width="50" height="50" relative="1" as="geometry">
            <mxPoint x="410" y="150" as="sourcePoint" />
            <mxPoint x="460" y="100" as="targetPoint" />
          </mxGeometry>
        </mxCell>
        <mxCell id="O8Ay8VOZU-02YLO_uC_p-12" value="" style="endArrow=none;html=1;rounded=0;exitX=1;exitY=0.5;exitDx=0;exitDy=0;entryX=0;entryY=1;entryDx=0;entryDy=0;" parent="1" source="O8Ay8VOZU-02YLO_uC_p-8" target="O8Ay8VOZU-02YLO_uC_p-3" edge="1">
          <mxGeometry width="50" height="50" relative="1" as="geometry">
            <mxPoint x="420" y="160" as="sourcePoint" />
            <mxPoint x="470" y="110" as="targetPoint" />
          </mxGeometry>
        </mxCell>
        <mxCell id="O8Ay8VOZU-02YLO_uC_p-13" value="" style="endArrow=none;html=1;rounded=0;exitX=1;exitY=0.5;exitDx=0;exitDy=0;entryX=0;entryY=0;entryDx=0;entryDy=0;" parent="1" source="O8Ay8VOZU-02YLO_uC_p-7" target="O8Ay8VOZU-02YLO_uC_p-3" edge="1">
          <mxGeometry width="50" height="50" relative="1" as="geometry">
            <mxPoint x="430" y="170" as="sourcePoint" />
            <mxPoint x="480" y="120" as="targetPoint" />
          </mxGeometry>
        </mxCell>
        <mxCell id="O8Ay8VOZU-02YLO_uC_p-14" value="" style="endArrow=none;html=1;rounded=0;exitX=0.5;exitY=0;exitDx=0;exitDy=0;entryX=0.25;entryY=1;entryDx=0;entryDy=0;" parent="1" source="O8Ay8VOZU-02YLO_uC_p-4" target="O8Ay8VOZU-02YLO_uC_p-1" edge="1">
          <mxGeometry width="50" height="50" relative="1" as="geometry">
            <mxPoint x="440" y="180" as="sourcePoint" />
            <mxPoint x="490" y="130" as="targetPoint" />
          </mxGeometry>
        </mxCell>
        <mxCell id="O8Ay8VOZU-02YLO_uC_p-15" value="Department" style="rounded=0;whiteSpace=wrap;html=1;" parent="1" vertex="1">
          <mxGeometry x="570" y="57.5" width="80" height="30" as="geometry" />
        </mxCell>
        <mxCell id="O8Ay8VOZU-02YLO_uC_p-16" value="De_ID" style="ellipse;whiteSpace=wrap;html=1;" parent="1" vertex="1">
          <mxGeometry x="680" y="17.5" width="80" height="40" as="geometry" />
        </mxCell>
        <mxCell id="O8Ay8VOZU-02YLO_uC_p-17" value="DE_name" style="ellipse;whiteSpace=wrap;html=1;" parent="1" vertex="1">
          <mxGeometry x="680" y="92.5" width="80" height="40" as="geometry" />
        </mxCell>
        <mxCell id="O8Ay8VOZU-02YLO_uC_p-18" value="" style="endArrow=none;html=1;rounded=0;exitX=0;exitY=1;exitDx=0;exitDy=0;entryX=1;entryY=1;entryDx=0;entryDy=0;" parent="1" source="O8Ay8VOZU-02YLO_uC_p-16" target="O8Ay8VOZU-02YLO_uC_p-16" edge="1">
          <mxGeometry width="50" height="50" relative="1" as="geometry">
            <mxPoint x="490" y="137.5" as="sourcePoint" />
            <mxPoint x="540" y="87.5" as="targetPoint" />
          </mxGeometry>
        </mxCell>
        <mxCell id="O8Ay8VOZU-02YLO_uC_p-19" value="" style="endArrow=none;html=1;rounded=0;exitX=0;exitY=0.5;exitDx=0;exitDy=0;entryX=1;entryY=1;entryDx=0;entryDy=0;" parent="1" source="O8Ay8VOZU-02YLO_uC_p-17" target="O8Ay8VOZU-02YLO_uC_p-15" edge="1">
          <mxGeometry width="50" height="50" relative="1" as="geometry">
            <mxPoint x="490" y="137.5" as="sourcePoint" />
            <mxPoint x="540" y="87.5" as="targetPoint" />
          </mxGeometry>
        </mxCell>
        <mxCell id="O8Ay8VOZU-02YLO_uC_p-20" value="" style="endArrow=none;html=1;rounded=0;exitX=1;exitY=0;exitDx=0;exitDy=0;entryX=0;entryY=0.5;entryDx=0;entryDy=0;" parent="1" source="O8Ay8VOZU-02YLO_uC_p-15" target="O8Ay8VOZU-02YLO_uC_p-16" edge="1">
          <mxGeometry width="50" height="50" relative="1" as="geometry">
            <mxPoint x="490" y="137.5" as="sourcePoint" />
            <mxPoint x="540" y="87.5" as="targetPoint" />
          </mxGeometry>
        </mxCell>
        <mxCell id="O8Ay8VOZU-02YLO_uC_p-34" value="Course" style="rounded=0;whiteSpace=wrap;html=1;" parent="1" vertex="1">
          <mxGeometry x="150" y="290" width="80" height="30" as="geometry" />
        </mxCell>
        <mxCell id="O8Ay8VOZU-02YLO_uC_p-35" value="Crs_discription" style="ellipse;whiteSpace=wrap;html=1;" parent="1" vertex="1">
          <mxGeometry x="110" y="380" width="80" height="40" as="geometry" />
        </mxCell>
        <mxCell id="O8Ay8VOZU-02YLO_uC_p-36" value="Crs_ID" style="ellipse;whiteSpace=wrap;html=1;" parent="1" vertex="1">
          <mxGeometry x="60" y="240" width="80" height="40" as="geometry" />
        </mxCell>
        <mxCell id="O8Ay8VOZU-02YLO_uC_p-37" value="Crs_name" style="ellipse;whiteSpace=wrap;html=1;" parent="1" vertex="1">
          <mxGeometry x="20" y="290" width="80" height="40" as="geometry" />
        </mxCell>
        <mxCell id="O8Ay8VOZU-02YLO_uC_p-38" value="Crs_duration" style="ellipse;whiteSpace=wrap;html=1;" parent="1" vertex="1">
          <mxGeometry x="50" y="340" width="80" height="40" as="geometry" />
        </mxCell>
        <mxCell id="O8Ay8VOZU-02YLO_uC_p-39" value="" style="endArrow=none;html=1;rounded=0;exitX=0;exitY=1;exitDx=0;exitDy=0;entryX=1;entryY=1;entryDx=0;entryDy=0;elbow=vertical;" parent="1" source="O8Ay8VOZU-02YLO_uC_p-36" target="O8Ay8VOZU-02YLO_uC_p-36" edge="1">
          <mxGeometry width="50" height="50" relative="1" as="geometry">
            <mxPoint x="400" y="160" as="sourcePoint" />
            <mxPoint x="450" y="110" as="targetPoint" />
          </mxGeometry>
        </mxCell>
        <mxCell id="O8Ay8VOZU-02YLO_uC_p-40" value="" style="endArrow=none;html=1;rounded=0;exitX=1;exitY=0.5;exitDx=0;exitDy=0;entryX=0;entryY=0;entryDx=0;entryDy=0;" parent="1" source="O8Ay8VOZU-02YLO_uC_p-36" target="O8Ay8VOZU-02YLO_uC_p-34" edge="1">
          <mxGeometry width="50" height="50" relative="1" as="geometry">
            <mxPoint x="400" y="160" as="sourcePoint" />
            <mxPoint x="450" y="110" as="targetPoint" />
          </mxGeometry>
        </mxCell>
        <mxCell id="O8Ay8VOZU-02YLO_uC_p-41" value="" style="endArrow=none;html=1;rounded=0;exitX=0.5;exitY=0;exitDx=0;exitDy=0;entryX=0.5;entryY=1;entryDx=0;entryDy=0;" parent="1" source="O8Ay8VOZU-02YLO_uC_p-35" target="O8Ay8VOZU-02YLO_uC_p-34" edge="1">
          <mxGeometry width="50" height="50" relative="1" as="geometry">
            <mxPoint x="400" y="160" as="sourcePoint" />
            <mxPoint x="450" y="110" as="targetPoint" />
          </mxGeometry>
        </mxCell>
        <mxCell id="O8Ay8VOZU-02YLO_uC_p-42" value="" style="endArrow=none;html=1;rounded=0;exitX=1;exitY=0;exitDx=0;exitDy=0;entryX=0;entryY=1;entryDx=0;entryDy=0;" parent="1" source="O8Ay8VOZU-02YLO_uC_p-38" target="O8Ay8VOZU-02YLO_uC_p-34" edge="1">
          <mxGeometry width="50" height="50" relative="1" as="geometry">
            <mxPoint x="400" y="160" as="sourcePoint" />
            <mxPoint x="450" y="110" as="targetPoint" />
          </mxGeometry>
        </mxCell>
        <mxCell id="O8Ay8VOZU-02YLO_uC_p-43" value="" style="endArrow=none;html=1;rounded=0;exitX=1;exitY=0.5;exitDx=0;exitDy=0;entryX=0;entryY=0.25;entryDx=0;entryDy=0;" parent="1" source="O8Ay8VOZU-02YLO_uC_p-37" target="O8Ay8VOZU-02YLO_uC_p-34" edge="1">
          <mxGeometry width="50" height="50" relative="1" as="geometry">
            <mxPoint x="400" y="160" as="sourcePoint" />
            <mxPoint x="450" y="110" as="targetPoint" />
          </mxGeometry>
        </mxCell>
        <mxCell id="O8Ay8VOZU-02YLO_uC_p-54" value="Instructor" style="rounded=0;whiteSpace=wrap;html=1;" parent="1" vertex="1">
          <mxGeometry x="570" y="290" width="80" height="30" as="geometry" />
        </mxCell>
        <mxCell id="O8Ay8VOZU-02YLO_uC_p-55" value="Ins_hourRate" style="ellipse;whiteSpace=wrap;html=1;" parent="1" vertex="1">
          <mxGeometry x="620" y="380" width="80" height="40" as="geometry" />
        </mxCell>
        <mxCell id="O8Ay8VOZU-02YLO_uC_p-56" value="Ins_salary" style="ellipse;whiteSpace=wrap;html=1;" parent="1" vertex="1">
          <mxGeometry x="670" y="330" width="80" height="40" as="geometry" />
        </mxCell>
        <mxCell id="O8Ay8VOZU-02YLO_uC_p-57" value="Ins_name" style="ellipse;whiteSpace=wrap;html=1;" parent="1" vertex="1">
          <mxGeometry x="670" y="270" width="80" height="40" as="geometry" />
        </mxCell>
        <mxCell id="O8Ay8VOZU-02YLO_uC_p-58" value="Ins_ID" style="ellipse;whiteSpace=wrap;html=1;" parent="1" vertex="1">
          <mxGeometry x="640" y="220" width="80" height="40" as="geometry" />
        </mxCell>
        <mxCell id="O8Ay8VOZU-02YLO_uC_p-59" value="" style="endArrow=none;html=1;rounded=0;exitX=0;exitY=1;exitDx=0;exitDy=0;entryX=1;entryY=1;entryDx=0;entryDy=0;" parent="1" source="O8Ay8VOZU-02YLO_uC_p-58" target="O8Ay8VOZU-02YLO_uC_p-58" edge="1">
          <mxGeometry width="50" height="50" relative="1" as="geometry">
            <mxPoint x="400" y="300" as="sourcePoint" />
            <mxPoint x="450" y="250" as="targetPoint" />
          </mxGeometry>
        </mxCell>
        <mxCell id="O8Ay8VOZU-02YLO_uC_p-60" value="ins_bouns" style="ellipse;whiteSpace=wrap;html=1;" parent="1" vertex="1">
          <mxGeometry x="530" y="390" width="80" height="40" as="geometry" />
        </mxCell>
        <mxCell id="O8Ay8VOZU-02YLO_uC_p-61" value="ins_address" style="ellipse;whiteSpace=wrap;html=1;" parent="1" vertex="1">
          <mxGeometry x="470" y="350" width="80" height="40" as="geometry" />
        </mxCell>
        <mxCell id="O8Ay8VOZU-02YLO_uC_p-64" value="" style="endArrow=none;html=1;rounded=0;exitX=0.75;exitY=0.09;exitDx=0;exitDy=0;exitPerimeter=0;entryX=0;entryY=1;entryDx=0;entryDy=0;" parent="1" source="O8Ay8VOZU-02YLO_uC_p-61" target="O8Ay8VOZU-02YLO_uC_p-54" edge="1">
          <mxGeometry width="50" height="50" relative="1" as="geometry">
            <mxPoint x="400" y="300" as="sourcePoint" />
            <mxPoint x="450" y="250" as="targetPoint" />
          </mxGeometry>
        </mxCell>
        <mxCell id="O8Ay8VOZU-02YLO_uC_p-65" value="" style="endArrow=none;html=1;rounded=0;exitX=0.5;exitY=0;exitDx=0;exitDy=0;entryX=0.25;entryY=1;entryDx=0;entryDy=0;" parent="1" source="O8Ay8VOZU-02YLO_uC_p-60" target="O8Ay8VOZU-02YLO_uC_p-54" edge="1">
          <mxGeometry width="50" height="50" relative="1" as="geometry">
            <mxPoint x="400" y="300" as="sourcePoint" />
            <mxPoint x="450" y="250" as="targetPoint" />
          </mxGeometry>
        </mxCell>
        <mxCell id="O8Ay8VOZU-02YLO_uC_p-66" value="" style="endArrow=none;html=1;rounded=0;exitX=0.5;exitY=0;exitDx=0;exitDy=0;entryX=0.75;entryY=1;entryDx=0;entryDy=0;" parent="1" source="O8Ay8VOZU-02YLO_uC_p-55" target="O8Ay8VOZU-02YLO_uC_p-54" edge="1">
          <mxGeometry width="50" height="50" relative="1" as="geometry">
            <mxPoint x="400" y="300" as="sourcePoint" />
            <mxPoint x="450" y="250" as="targetPoint" />
          </mxGeometry>
        </mxCell>
        <mxCell id="O8Ay8VOZU-02YLO_uC_p-67" value="" style="endArrow=none;html=1;rounded=0;exitX=0;exitY=0;exitDx=0;exitDy=0;entryX=1;entryY=1;entryDx=0;entryDy=0;" parent="1" source="O8Ay8VOZU-02YLO_uC_p-56" target="O8Ay8VOZU-02YLO_uC_p-54" edge="1">
          <mxGeometry width="50" height="50" relative="1" as="geometry">
            <mxPoint x="400" y="300" as="sourcePoint" />
            <mxPoint x="450" y="250" as="targetPoint" />
          </mxGeometry>
        </mxCell>
        <mxCell id="O8Ay8VOZU-02YLO_uC_p-68" value="" style="endArrow=none;html=1;rounded=0;exitX=1;exitY=0.25;exitDx=0;exitDy=0;entryX=0;entryY=0.5;entryDx=0;entryDy=0;" parent="1" source="O8Ay8VOZU-02YLO_uC_p-54" target="O8Ay8VOZU-02YLO_uC_p-57" edge="1">
          <mxGeometry width="50" height="50" relative="1" as="geometry">
            <mxPoint x="400" y="300" as="sourcePoint" />
            <mxPoint x="450" y="250" as="targetPoint" />
          </mxGeometry>
        </mxCell>
        <mxCell id="O8Ay8VOZU-02YLO_uC_p-69" value="" style="endArrow=none;html=1;rounded=0;exitX=0.75;exitY=0;exitDx=0;exitDy=0;entryX=0;entryY=1;entryDx=0;entryDy=0;" parent="1" source="O8Ay8VOZU-02YLO_uC_p-54" target="O8Ay8VOZU-02YLO_uC_p-58" edge="1">
          <mxGeometry width="50" height="50" relative="1" as="geometry">
            <mxPoint x="400" y="300" as="sourcePoint" />
            <mxPoint x="450" y="250" as="targetPoint" />
          </mxGeometry>
        </mxCell>
        <mxCell id="O8Ay8VOZU-02YLO_uC_p-71" value="Topic" style="rounded=0;whiteSpace=wrap;html=1;" parent="1" vertex="1">
          <mxGeometry x="270" y="360" width="80" height="30" as="geometry" />
        </mxCell>
        <mxCell id="O8Ay8VOZU-02YLO_uC_p-72" value="Topic_ID" style="ellipse;whiteSpace=wrap;html=1;" parent="1" vertex="1">
          <mxGeometry x="330" y="420" width="80" height="40" as="geometry" />
        </mxCell>
        <mxCell id="O8Ay8VOZU-02YLO_uC_p-73" value="Topic_name" style="ellipse;whiteSpace=wrap;html=1;" parent="1" vertex="1">
          <mxGeometry x="220" y="420" width="80" height="40" as="geometry" />
        </mxCell>
        <mxCell id="O8Ay8VOZU-02YLO_uC_p-74" value="" style="endArrow=none;html=1;rounded=0;exitX=0;exitY=1;exitDx=0;exitDy=0;entryX=1;entryY=1;entryDx=0;entryDy=0;" parent="1" source="O8Ay8VOZU-02YLO_uC_p-72" target="O8Ay8VOZU-02YLO_uC_p-72" edge="1">
          <mxGeometry width="50" height="50" relative="1" as="geometry">
            <mxPoint x="400" y="300" as="sourcePoint" />
            <mxPoint x="450" y="250" as="targetPoint" />
          </mxGeometry>
        </mxCell>
        <mxCell id="O8Ay8VOZU-02YLO_uC_p-75" value="" style="endArrow=none;html=1;rounded=0;exitX=0.75;exitY=1;exitDx=0;exitDy=0;entryX=0.5;entryY=0;entryDx=0;entryDy=0;" parent="1" source="O8Ay8VOZU-02YLO_uC_p-71" target="O8Ay8VOZU-02YLO_uC_p-72" edge="1">
          <mxGeometry width="50" height="50" relative="1" as="geometry">
            <mxPoint x="400" y="300" as="sourcePoint" />
            <mxPoint x="450" y="250" as="targetPoint" />
          </mxGeometry>
        </mxCell>
        <mxCell id="O8Ay8VOZU-02YLO_uC_p-76" value="" style="endArrow=none;html=1;rounded=0;exitX=0.5;exitY=0;exitDx=0;exitDy=0;" parent="1" source="O8Ay8VOZU-02YLO_uC_p-73" edge="1">
          <mxGeometry width="50" height="50" relative="1" as="geometry">
            <mxPoint x="400" y="300" as="sourcePoint" />
            <mxPoint x="290" y="390" as="targetPoint" />
          </mxGeometry>
        </mxCell>
        <mxCell id="O8Ay8VOZU-02YLO_uC_p-78" value="Take" style="rhombus;whiteSpace=wrap;html=1;" parent="1" vertex="1">
          <mxGeometry x="160" y="160" width="60" height="60" as="geometry" />
        </mxCell>
        <mxCell id="O8Ay8VOZU-02YLO_uC_p-79" value="Have" style="rhombus;whiteSpace=wrap;html=1;" parent="1" vertex="1">
          <mxGeometry x="205" y="340" width="30" height="30" as="geometry" />
        </mxCell>
        <mxCell id="O8Ay8VOZU-02YLO_uC_p-80" value="Teach" style="rhombus;whiteSpace=wrap;html=1;" parent="1" vertex="1">
          <mxGeometry x="360" y="275" width="60" height="60" as="geometry" />
        </mxCell>
        <mxCell id="O8Ay8VOZU-02YLO_uC_p-81" value="manage" style="rhombus;whiteSpace=wrap;html=1;" parent="1" vertex="1">
          <mxGeometry x="510" y="160" width="60" height="60" as="geometry" />
        </mxCell>
        <mxCell id="O8Ay8VOZU-02YLO_uC_p-82" value="Contains" style="rhombus;whiteSpace=wrap;html=1;" parent="1" vertex="1">
          <mxGeometry x="580" y="160" width="60" height="60" as="geometry" />
        </mxCell>
        <mxCell id="O8Ay8VOZU-02YLO_uC_p-84" value="" style="endArrow=none;html=1;rounded=0;exitX=0.5;exitY=0;exitDx=0;exitDy=0;entryX=0.5;entryY=1;entryDx=0;entryDy=0;" parent="1" source="O8Ay8VOZU-02YLO_uC_p-88" target="O8Ay8VOZU-02YLO_uC_p-78" edge="1">
          <mxGeometry width="50" height="50" relative="1" as="geometry">
            <mxPoint x="420" y="310" as="sourcePoint" />
            <mxPoint x="470" y="260" as="targetPoint" />
          </mxGeometry>
        </mxCell>
        <mxCell id="O8Ay8VOZU-02YLO_uC_p-87" value="" style="endArrow=none;html=1;rounded=0;exitX=0.5;exitY=0;exitDx=0;exitDy=0;entryX=0.5;entryY=1;entryDx=0;entryDy=0;" parent="1" source="O8Ay8VOZU-02YLO_uC_p-92" target="O8Ay8VOZU-02YLO_uC_p-1" edge="1">
          <mxGeometry width="50" height="50" relative="1" as="geometry">
            <mxPoint x="200" y="160" as="sourcePoint" />
            <mxPoint x="200" y="127.5" as="targetPoint" />
            <Array as="points" />
          </mxGeometry>
        </mxCell>
        <mxCell id="O8Ay8VOZU-02YLO_uC_p-89" value="" style="endArrow=none;html=1;rounded=0;exitX=0.5;exitY=0;exitDx=0;exitDy=0;entryX=0.5;entryY=1;entryDx=0;entryDy=0;" parent="1" source="O8Ay8VOZU-02YLO_uC_p-34" target="O8Ay8VOZU-02YLO_uC_p-88" edge="1">
          <mxGeometry width="50" height="50" relative="1" as="geometry">
            <mxPoint x="190" y="290" as="sourcePoint" />
            <mxPoint x="200" y="220" as="targetPoint" />
          </mxGeometry>
        </mxCell>
        <mxCell id="O8Ay8VOZU-02YLO_uC_p-88" value="M" style="text;html=1;align=center;verticalAlign=middle;whiteSpace=wrap;rounded=0;" parent="1" vertex="1">
          <mxGeometry x="175" y="253.75" width="30" height="12.5" as="geometry" />
        </mxCell>
        <mxCell id="O8Ay8VOZU-02YLO_uC_p-93" value="" style="endArrow=none;html=1;rounded=0;exitX=0.5;exitY=0;exitDx=0;exitDy=0;entryX=0.5;entryY=1;entryDx=0;entryDy=0;" parent="1" source="O8Ay8VOZU-02YLO_uC_p-78" target="O8Ay8VOZU-02YLO_uC_p-92" edge="1">
          <mxGeometry width="50" height="50" relative="1" as="geometry">
            <mxPoint x="190" y="160" as="sourcePoint" />
            <mxPoint x="190" y="90" as="targetPoint" />
            <Array as="points">
              <mxPoint x="190" y="140" />
            </Array>
          </mxGeometry>
        </mxCell>
        <mxCell id="O8Ay8VOZU-02YLO_uC_p-92" value="M" style="text;html=1;align=center;verticalAlign=middle;whiteSpace=wrap;rounded=0;" parent="1" vertex="1">
          <mxGeometry x="175" y="120" width="30" height="12.5" as="geometry" />
        </mxCell>
        <mxCell id="O8Ay8VOZU-02YLO_uC_p-94" value="Grade" style="ellipse;whiteSpace=wrap;html=1;" parent="1" vertex="1">
          <mxGeometry x="60" y="175" width="70" height="30" as="geometry" />
        </mxCell>
        <mxCell id="O8Ay8VOZU-02YLO_uC_p-95" value="" style="endArrow=none;html=1;rounded=0;exitX=1;exitY=0.5;exitDx=0;exitDy=0;entryX=0;entryY=0.5;entryDx=0;entryDy=0;" parent="1" source="O8Ay8VOZU-02YLO_uC_p-94" target="O8Ay8VOZU-02YLO_uC_p-78" edge="1">
          <mxGeometry width="50" height="50" relative="1" as="geometry">
            <mxPoint x="420" y="310" as="sourcePoint" />
            <mxPoint x="470" y="260" as="targetPoint" />
          </mxGeometry>
        </mxCell>
        <mxCell id="O8Ay8VOZU-02YLO_uC_p-98" value="M" style="text;html=1;align=center;verticalAlign=middle;whiteSpace=wrap;rounded=0;" parent="1" vertex="1">
          <mxGeometry x="595" y="247.5" width="30" height="12.5" as="geometry" />
        </mxCell>
        <mxCell id="O8Ay8VOZU-02YLO_uC_p-99" value="" style="endArrow=none;html=1;rounded=0;exitX=0.5;exitY=0;exitDx=0;exitDy=0;entryX=0.5;entryY=1;entryDx=0;entryDy=0;shape=link;" parent="1" source="O8Ay8VOZU-02YLO_uC_p-54" target="O8Ay8VOZU-02YLO_uC_p-82" edge="1">
          <mxGeometry width="50" height="50" relative="1" as="geometry">
            <mxPoint x="440" y="300" as="sourcePoint" />
            <mxPoint x="490" y="250" as="targetPoint" />
          </mxGeometry>
        </mxCell>
        <mxCell id="O8Ay8VOZU-02YLO_uC_p-101" value="1" style="text;html=1;align=center;verticalAlign=middle;whiteSpace=wrap;rounded=0;" parent="1" vertex="1">
          <mxGeometry x="590" y="116.88" width="30" height="18.75" as="geometry" />
        </mxCell>
        <mxCell id="O8Ay8VOZU-02YLO_uC_p-105" value="1" style="text;html=1;align=center;verticalAlign=middle;whiteSpace=wrap;rounded=0;" parent="1" vertex="1">
          <mxGeometry x="540" y="247.5" width="30" height="18.75" as="geometry" />
        </mxCell>
        <mxCell id="O8Ay8VOZU-02YLO_uC_p-107" value="" style="endArrow=none;html=1;rounded=0;exitX=0;exitY=0;exitDx=0;exitDy=0;entryX=0.5;entryY=1;entryDx=0;entryDy=0;entryPerimeter=0;" parent="1" source="O8Ay8VOZU-02YLO_uC_p-54" target="O8Ay8VOZU-02YLO_uC_p-81" edge="1">
          <mxGeometry width="50" height="50" relative="1" as="geometry">
            <mxPoint x="440" y="300" as="sourcePoint" />
            <mxPoint x="540" y="230" as="targetPoint" />
          </mxGeometry>
        </mxCell>
        <mxCell id="O8Ay8VOZU-02YLO_uC_p-108" value="" style="endArrow=none;html=1;rounded=0;exitX=0.25;exitY=1;exitDx=0;exitDy=0;entryX=0.5;entryY=0;entryDx=0;entryDy=0;shape=link;" parent="1" source="O8Ay8VOZU-02YLO_uC_p-130" target="O8Ay8VOZU-02YLO_uC_p-81" edge="1">
          <mxGeometry width="50" height="50" relative="1" as="geometry">
            <mxPoint x="580" y="300" as="sourcePoint" />
            <mxPoint x="550" y="230" as="targetPoint" />
          </mxGeometry>
        </mxCell>
        <mxCell id="O8Ay8VOZU-02YLO_uC_p-110" value="Hiring Date" style="ellipse;whiteSpace=wrap;html=1;" parent="1" vertex="1">
          <mxGeometry x="400" y="170" width="80" height="40" as="geometry" />
        </mxCell>
        <mxCell id="O8Ay8VOZU-02YLO_uC_p-111" value="" style="endArrow=none;html=1;rounded=0;exitX=1;exitY=0.5;exitDx=0;exitDy=0;entryX=0;entryY=0.5;entryDx=0;entryDy=0;" parent="1" source="O8Ay8VOZU-02YLO_uC_p-110" target="O8Ay8VOZU-02YLO_uC_p-81" edge="1">
          <mxGeometry width="50" height="50" relative="1" as="geometry">
            <mxPoint x="440" y="300" as="sourcePoint" />
            <mxPoint x="490" y="250" as="targetPoint" />
          </mxGeometry>
        </mxCell>
        <mxCell id="O8Ay8VOZU-02YLO_uC_p-113" value="Evaluation" style="ellipse;whiteSpace=wrap;html=1;" parent="1" vertex="1">
          <mxGeometry x="350" y="220" width="80" height="40" as="geometry" />
        </mxCell>
        <mxCell id="O8Ay8VOZU-02YLO_uC_p-114" value="" style="endArrow=none;html=1;rounded=0;exitX=0.5;exitY=0;exitDx=0;exitDy=0;entryX=0.5;entryY=1;entryDx=0;entryDy=0;" parent="1" source="O8Ay8VOZU-02YLO_uC_p-80" target="O8Ay8VOZU-02YLO_uC_p-113" edge="1">
          <mxGeometry width="50" height="50" relative="1" as="geometry">
            <mxPoint x="330" y="282" as="sourcePoint" />
            <mxPoint x="490" y="250" as="targetPoint" />
          </mxGeometry>
        </mxCell>
        <mxCell id="O8Ay8VOZU-02YLO_uC_p-115" value="M" style="text;html=1;align=center;verticalAlign=middle;whiteSpace=wrap;rounded=0;" parent="1" vertex="1">
          <mxGeometry x="470" y="295" width="30" height="15" as="geometry" />
        </mxCell>
        <mxCell id="O8Ay8VOZU-02YLO_uC_p-116" value="M" style="text;html=1;align=center;verticalAlign=middle;whiteSpace=wrap;rounded=0;" parent="1" vertex="1">
          <mxGeometry x="270" y="295" width="30" height="15" as="geometry" />
        </mxCell>
        <mxCell id="O8Ay8VOZU-02YLO_uC_p-117" value="" style="endArrow=none;html=1;rounded=0;exitX=1;exitY=0.75;exitDx=0;exitDy=0;entryX=0;entryY=0.5;entryDx=0;entryDy=0;" parent="1" source="O8Ay8VOZU-02YLO_uC_p-34" target="O8Ay8VOZU-02YLO_uC_p-80" edge="1">
          <mxGeometry width="50" height="50" relative="1" as="geometry">
            <mxPoint x="440" y="300" as="sourcePoint" />
            <mxPoint x="490" y="250" as="targetPoint" />
          </mxGeometry>
        </mxCell>
        <mxCell id="O8Ay8VOZU-02YLO_uC_p-118" value="" style="endArrow=none;html=1;rounded=0;exitX=1;exitY=0.5;exitDx=0;exitDy=0;entryX=0;entryY=0.5;entryDx=0;entryDy=0;" parent="1" source="O8Ay8VOZU-02YLO_uC_p-80" target="O8Ay8VOZU-02YLO_uC_p-54" edge="1">
          <mxGeometry width="50" height="50" relative="1" as="geometry">
            <mxPoint x="440" y="300" as="sourcePoint" />
            <mxPoint x="490" y="250" as="targetPoint" />
          </mxGeometry>
        </mxCell>
        <mxCell id="O8Ay8VOZU-02YLO_uC_p-119" value="M" style="text;html=1;align=center;verticalAlign=middle;whiteSpace=wrap;rounded=0;" parent="1" vertex="1">
          <mxGeometry x="210" y="320" width="20" height="20" as="geometry" />
        </mxCell>
        <mxCell id="O8Ay8VOZU-02YLO_uC_p-120" value="1" style="text;html=1;align=center;verticalAlign=middle;whiteSpace=wrap;rounded=0;" parent="1" vertex="1">
          <mxGeometry x="240" y="355" width="20" height="10" as="geometry" />
        </mxCell>
        <mxCell id="O8Ay8VOZU-02YLO_uC_p-121" value="" style="endArrow=none;html=1;rounded=0;exitX=0;exitY=0.5;exitDx=0;exitDy=0;entryX=1;entryY=0.5;entryDx=0;entryDy=0;" parent="1" source="O8Ay8VOZU-02YLO_uC_p-71" target="O8Ay8VOZU-02YLO_uC_p-79" edge="1">
          <mxGeometry width="50" height="50" relative="1" as="geometry">
            <mxPoint x="440" y="300" as="sourcePoint" />
            <mxPoint x="490" y="250" as="targetPoint" />
          </mxGeometry>
        </mxCell>
        <mxCell id="O8Ay8VOZU-02YLO_uC_p-122" value="" style="endArrow=none;html=1;rounded=0;exitX=0.5;exitY=0;exitDx=0;exitDy=0;entryX=0;entryY=0;entryDx=0;entryDy=0;shape=link;" parent="1" source="O8Ay8VOZU-02YLO_uC_p-79" target="O8Ay8VOZU-02YLO_uC_p-119" edge="1">
          <mxGeometry width="50" height="50" relative="1" as="geometry">
            <mxPoint x="440" y="300" as="sourcePoint" />
            <mxPoint x="490" y="250" as="targetPoint" />
          </mxGeometry>
        </mxCell>
        <mxCell id="O8Ay8VOZU-02YLO_uC_p-124" value="enroll" style="rhombus;whiteSpace=wrap;html=1;" parent="1" vertex="1">
          <mxGeometry x="350" y="42.5" width="60" height="60" as="geometry" />
        </mxCell>
        <mxCell id="O8Ay8VOZU-02YLO_uC_p-125" value="1" style="text;html=1;align=center;verticalAlign=middle;whiteSpace=wrap;rounded=0;" parent="1" vertex="1">
          <mxGeometry x="450" y="66.25" width="30" height="12.5" as="geometry" />
        </mxCell>
        <mxCell id="O8Ay8VOZU-02YLO_uC_p-126" value="M" style="text;html=1;align=center;verticalAlign=middle;whiteSpace=wrap;rounded=0;" parent="1" vertex="1">
          <mxGeometry x="275" y="67.5" width="20" height="10" as="geometry" />
        </mxCell>
        <mxCell id="O8Ay8VOZU-02YLO_uC_p-127" value="" style="endArrow=none;html=1;rounded=0;exitX=1;exitY=0.5;exitDx=0;exitDy=0;entryX=0;entryY=0.5;entryDx=0;entryDy=0;shape=link;" parent="1" source="O8Ay8VOZU-02YLO_uC_p-1" target="O8Ay8VOZU-02YLO_uC_p-124" edge="1">
          <mxGeometry width="50" height="50" relative="1" as="geometry">
            <mxPoint x="440" y="300" as="sourcePoint" />
            <mxPoint x="490" y="250" as="targetPoint" />
          </mxGeometry>
        </mxCell>
        <mxCell id="O8Ay8VOZU-02YLO_uC_p-128" value="" style="endArrow=none;html=1;rounded=0;exitX=1;exitY=0.5;exitDx=0;exitDy=0;entryX=0;entryY=0.25;entryDx=0;entryDy=0;" parent="1" source="O8Ay8VOZU-02YLO_uC_p-124" target="O8Ay8VOZU-02YLO_uC_p-15" edge="1">
          <mxGeometry width="50" height="50" relative="1" as="geometry">
            <mxPoint x="440" y="300" as="sourcePoint" />
            <mxPoint x="490" y="250" as="targetPoint" />
          </mxGeometry>
        </mxCell>
        <mxCell id="O8Ay8VOZU-02YLO_uC_p-129" value="" style="endArrow=none;html=1;rounded=0;exitX=0.5;exitY=0;exitDx=0;exitDy=0;entryX=0.5;entryY=1;entryDx=0;entryDy=0;shape=link;" parent="1" source="O8Ay8VOZU-02YLO_uC_p-82" target="O8Ay8VOZU-02YLO_uC_p-15" edge="1">
          <mxGeometry width="50" height="50" relative="1" as="geometry">
            <mxPoint x="440" y="300" as="sourcePoint" />
            <mxPoint x="490" y="250" as="targetPoint" />
          </mxGeometry>
        </mxCell>
        <mxCell id="O8Ay8VOZU-02YLO_uC_p-131" value="" style="endArrow=none;html=1;rounded=0;exitX=0;exitY=1;exitDx=0;exitDy=0;entryX=0.5;entryY=0;entryDx=0;entryDy=0;shape=link;" parent="1" source="O8Ay8VOZU-02YLO_uC_p-15" target="O8Ay8VOZU-02YLO_uC_p-130" edge="1">
          <mxGeometry width="50" height="50" relative="1" as="geometry">
            <mxPoint x="570" y="88" as="sourcePoint" />
            <mxPoint x="540" y="160" as="targetPoint" />
          </mxGeometry>
        </mxCell>
        <mxCell id="O8Ay8VOZU-02YLO_uC_p-130" value="1" style="text;html=1;align=center;verticalAlign=middle;whiteSpace=wrap;rounded=0;" parent="1" vertex="1">
          <mxGeometry x="540" y="110" width="30" height="18.75" as="geometry" />
        </mxCell>
        <mxCell id="O8Ay8VOZU-02YLO_uC_p-132" style="edgeStyle=orthogonalEdgeStyle;rounded=0;orthogonalLoop=1;jettySize=auto;html=1;exitX=1;exitY=1;exitDx=0;exitDy=0;entryX=1;entryY=0.5;entryDx=0;entryDy=0;" parent="1" source="O8Ay8VOZU-02YLO_uC_p-130" target="O8Ay8VOZU-02YLO_uC_p-130" edge="1">
          <mxGeometry relative="1" as="geometry" />
        </mxCell>
      </root>
    </mxGraphModel>
  </diagram>
</mxfile>
